<?xml version="1.0" encoding="UTF-8" standalone="no"?><!DOCTYPE svg PUBLIC "-//W3C//DTD SVG 1.1//EN" "http://www.w3.org/Graphics/SVG/1.1/DTD/svg11.dtd"><svg width="100%" height="100%" viewBox="0 0 235 235" version="1.1" xmlns="http://www.w3.org/2000/svg" xmlns:xlink="http://www.w3.org/1999/xlink" xml:space="preserve" xmlns:serif="http://www.serif.com/" style="fill-rule:evenodd;clip-rule:evenodd;"><g id="SVGRepo_bgCarrier"><path d="M116.993,208.666c16.791,4.542 37.11,12.626 51.358,2.648c14.798,-10.363 8.311,-34.817 17.108,-50.596c7.699,-13.809 24.739,-20.585 30.734,-35.214c6.633,-16.184 9.385,-34.608 4.798,-51.487c-4.712,-17.336 -15.126,-34.277 -30.592,-43.417c-15.13,-8.942 -34.362,-2.321 -51.698,-5.215c-15.84,-2.645 -30.62,-15.183 -46.158,-11.122c-15.541,4.063 -22.441,22.058 -34.823,32.29c-12.886,10.649 -33.641,13.792 -39.764,29.346c-6.111,15.526 3.494,32.772 9.132,48.476c4.824,13.435 12.295,25.367 21.344,36.408c8.536,10.414 18.932,18.49 29.972,26.2c12.275,8.573 24.136,17.773 38.589,21.683" style="fill:#3d348b;fill-rule:nonzero;"/></g><g id="SVGRepo_iconCarrier"><path d="M128.997,112.554l-2.789,-4.11l2.789,4.11Zm-57.792,-6.878l-4.776,1.364l4.776,-1.364Zm-3.82,-13.371l-4.776,1.364l4.776,-1.364Zm-14.966,4.008l4.818,-1.205l0,-0l-4.818,1.205Zm11.066,44.264l4.818,-1.204l-4.818,1.204Zm69.859,40.714c0,2.743 2.224,4.967 4.967,4.967c2.743,-0 4.967,-2.224 4.967,-4.967l-9.934,-0Zm9.934,-18.922c-0,-2.743 -2.224,-4.966 -4.967,-4.966c-2.743,-0 -4.967,2.223 -4.967,4.966l9.934,0Zm23.808,-59.128l0,-4.967c-0.98,0 -1.939,0.291 -2.755,0.835l2.755,4.132Zm-21.286,0l4.967,0c-0,-2.743 -2.224,-4.967 -4.967,-4.967l0,4.967Zm0,14.191l-4.967,0c0,1.832 1.009,3.515 2.623,4.379c1.615,0.865 3.575,0.77 5.099,-0.247l-2.755,-4.132Zm-32.717,-4.967c-12.932,0 -23.415,-10.483 -23.415,-23.414l-9.934,-0c0,18.418 14.931,33.348 33.349,33.348l0,-9.934Zm-23.415,-23.414c-0,-12.932 10.483,-23.415 23.415,-23.415l0,-9.934c-18.418,0 -33.349,14.931 -33.349,33.349l9.934,-0Zm23.415,-23.415c12.931,-0 23.415,10.483 23.415,23.415l9.934,-0c-0,-18.418 -14.931,-33.349 -33.349,-33.349l0,9.934Zm23.415,23.415c-0,8.061 -4.07,15.174 -10.29,19.393l5.577,8.22c8.828,-5.989 14.647,-16.121 14.647,-27.613l-9.934,-0Zm-10.29,19.393c-3.741,2.538 -8.252,4.021 -13.125,4.021l0,9.934c6.923,-0 13.366,-2.115 18.702,-5.735l-5.577,-8.22Zm39.143,72.847l0,-15.768l-9.933,0l-0,15.768l9.933,-0Zm-39.655,-55.423l-21.137,-0l0,9.933l21.137,0l-0,-9.933Zm-49.715,-21.557l-3.82,-13.371l-9.552,2.729l3.82,13.371l9.552,-2.729Zm-28.381,-6.794l11.066,44.265l9.637,-2.409l-11.066,-44.265l-9.637,2.409Zm11.066,44.265c1.902,7.606 8.735,12.941 16.574,12.941l-0,-9.934c-3.281,0 -6.141,-2.233 -6.937,-5.416l-9.637,2.409Zm1.269,-60.063c-8.272,-0 -14.341,7.773 -12.335,15.798l9.637,-2.409c-0.439,-1.755 0.889,-3.456 2.698,-3.456l0,-9.933Zm12.226,9.221c-1.56,-5.458 -6.549,-9.221 -12.226,-9.221l0,9.933c1.242,0 2.333,0.823 2.674,2.017l9.552,-2.729Zm32.398,34.928c-13.27,-0 -24.933,-8.797 -28.578,-21.557l-9.552,2.729c4.865,17.024 20.425,28.761 38.13,28.761l0,-9.933Zm60.792,39.655c0,-21.901 -17.754,-39.655 -39.655,-39.655l-0,9.933c16.415,0 29.722,13.307 29.722,29.722l9.933,0Zm-22.073,15.768l-0,-18.922l-9.934,0l0,18.922l9.934,-0Zm-4.573,-122.751l35.477,0l-0,-9.933l-35.477,-0l-0,9.933Zm44.701,9.224l-0,21.286l9.933,0l0,-21.286l-9.933,0Zm-9.224,30.51l-7.096,0l0,9.934l7.096,0l-0,-9.934Zm-28.382,0l-10.643,0l-0,9.934l10.643,0l0,-9.934Zm18.531,0.835l-21.286,14.191l5.51,8.264l21.286,-14.19l-5.51,-8.265Zm-13.564,18.323l-0,-14.191l-9.934,0l0,14.191l9.934,0Zm32.639,-28.382c-0,5.095 -4.13,9.224 -9.224,9.224l-0,9.934c10.58,0 19.157,-8.577 19.157,-19.158l-9.933,0Zm-9.224,-30.51c5.094,0 9.224,4.13 9.224,9.224l9.933,0c0,-10.58 -8.577,-19.157 -19.157,-19.157l-0,9.933Zm-35.477,-9.933c-8.039,-0 -14.909,4.949 -17.754,11.947l9.203,3.74c1.375,-3.383 4.692,-5.754 8.551,-5.754l-0,-9.933Z" style="fill:#e2e3fb;fill-rule:nonzero;stroke:#e2e3fb;stroke-width:1.36px;"/><circle cx="152.895" cy="78.407" r="3.548" style="fill:#e2e3fb;stroke:#e2e3fb;stroke-width:1.36px;"/><circle cx="167.086" cy="78.407" r="3.548" style="fill:#e2e3fb;stroke:#e2e3fb;stroke-width:1.36px;"/></g></svg>